<?xml version="1.0" encoding="UTF-8" standalone="no"?>
<!-- Created with Inkscape (http://www.inkscape.org/) -->

<svg
   version="1.1"
   id="svg1783"
   xml:space="preserve"
   width="644"
   height="224"
   viewBox="0 0 644 224"
   sodipodi:docname="logo2.svg"
   inkscape:version="1.1.1 (c3084ef, 2021-09-22)"
   xmlns:inkscape="http://www.inkscape.org/namespaces/inkscape"
   xmlns:sodipodi="http://sodipodi.sourceforge.net/DTD/sodipodi-0.dtd"
   xmlns="http://www.w3.org/2000/svg"
   xmlns:svg="http://www.w3.org/2000/svg"><defs
     id="defs1787"><clipPath
       clipPathUnits="userSpaceOnUse"
       id="clipPath1799"><path
         d="M 11,11 H 472 V 157 H 11 Z"
         id="path1797" /></clipPath><clipPath
       clipPathUnits="userSpaceOnUse"
       id="clipPath1803"><path
         d="M 0,0 H 483 V 168 H 0 Z"
         id="path1801" /></clipPath><mask
       maskUnits="userSpaceOnUse"
       x="0"
       y="0"
       width="1"
       height="1"
       id="mask1805"><g
         id="g1819"><g
           clip-path="url(#clipPath1799)"
           id="g1817"><g
             id="g1815"><g
               clip-path="url(#clipPath1803)"
               id="g1813"><g
                 transform="scale(0.75)"
                 id="g1811"><path
                   d="M 15.99999,208 C 219.99999,208 424,208 628,208 628,144 628,79.999995 628,15.999992 424,79.999995 219.99999,144 15.99999,208 c 0,0 0,0 0,0 z"
                   style="fill:#000000;fill-opacity:1;fill-rule:nonzero;stroke:none"
                   id="path1807" /><path
                   d="M 15.99999,208 C 219.99999,144 424,79.999995 628,15.999992 c -204,0 -408.00001,0 -612.00001,0 0,64.000003 0,128.000008 0,192.000008 0,0 0,0 0,0 z"
                   style="fill:#000000;fill-opacity:1;fill-rule:nonzero;stroke:none"
                   id="path1809" /></g></g></g></g></g></mask><clipPath
       clipPathUnits="userSpaceOnUse"
       id="clipPath1827"><path
         d="M 11,11 H 472 V 157 H 11 Z"
         id="path1825" /></clipPath><clipPath
       clipPathUnits="userSpaceOnUse"
       id="clipPath1831"><path
         d="M 0,0 H 483 V 168 H 0 Z"
         id="path1829" /></clipPath></defs><sodipodi:namedview
     id="namedview1785"
     pagecolor="#ffffff"
     bordercolor="#666666"
     borderopacity="1.0"
     inkscape:pageshadow="2"
     inkscape:pageopacity="0.0"
     inkscape:pagecheckerboard="0"
     showgrid="false"
     inkscape:zoom="1.2511534"
     inkscape:cx="333.29248"
     inkscape:cy="212.60383"
     inkscape:window-width="1297"
     inkscape:window-height="812"
     inkscape:window-x="1920"
     inkscape:window-y="152"
     inkscape:window-maximized="0"
     inkscape:current-layer="g1791" /><g
     id="g1789"
     inkscape:groupmode="layer"
     inkscape:label="logo"
     transform="matrix(1.3333333,0,0,1.3333333,0,5.6e-6)"><g
       id="g1791"><g
         id="g1847"
         transform="matrix(0.70964069,0,0,1,70.363747,0)"><path
           d="M 77.57,116.727 V 90.547"
           style="fill:none;stroke:#cb3c33;stroke-width:5.25;stroke-linecap:butt;stroke-linejoin:miter;stroke-miterlimit:10;stroke-dasharray:none;stroke-opacity:1"
           id="path1849" /></g><g
         id="g1851"
         transform="matrix(0.70964069,0,0,1,70.363747,0)"><path
           d="M 77.57,116.727 V 142.91"
           style="fill:none;stroke:#389826;stroke-width:5.25;stroke-linecap:butt;stroke-linejoin:miter;stroke-miterlimit:10;stroke-dasharray:none;stroke-opacity:1"
           id="path1853" /></g><g
         id="g1855"
         transform="matrix(0.70964069,0,0,1,70.363747,0)"><path
           d="M 118.77,116.727 V 98.215"
           style="fill:none;stroke:#cb3c33;stroke-width:5.25;stroke-linecap:butt;stroke-linejoin:miter;stroke-miterlimit:10;stroke-dasharray:none;stroke-opacity:1"
           id="path1857" /></g><g
         id="g1859"
         transform="matrix(0.70964069,0,0,1,70.363747,0)"><path
           d="m 118.77,116.727 v 18.515"
           style="fill:none;stroke:#389826;stroke-width:5.25;stroke-linecap:butt;stroke-linejoin:miter;stroke-miterlimit:10;stroke-dasharray:none;stroke-opacity:1"
           id="path1861" /></g><g
         id="g1863"
         transform="matrix(0.70964069,0,0,1,70.363747,0)"><path
           d="m 201.172,116.727 v 18.515"
           style="fill:none;stroke:#cb3c33;stroke-width:5.25;stroke-linecap:butt;stroke-linejoin:miter;stroke-miterlimit:10;stroke-dasharray:none;stroke-opacity:1"
           id="path1865" /></g><g
         id="g1867"
         transform="matrix(0.70964069,0,0,1,70.363747,0)"><path
           d="M 201.172,116.727 V 98.215"
           style="fill:none;stroke:#389826;stroke-width:5.25;stroke-linecap:butt;stroke-linejoin:miter;stroke-miterlimit:10;stroke-dasharray:none;stroke-opacity:1"
           id="path1869" /></g><g
         id="g1871"
         transform="matrix(0.70964069,0,0,1,70.363747,0)"><path
           d="M 242.371,116.727 V 142.91"
           style="fill:none;stroke:#cb3c33;stroke-width:5.25;stroke-linecap:butt;stroke-linejoin:miter;stroke-miterlimit:10;stroke-dasharray:none;stroke-opacity:1"
           id="path1873" /></g><g
         id="g1875"
         transform="matrix(0.70964069,0,0,1,70.363747,0)"><path
           d="M 242.371,116.727 V 90.547"
           style="fill:none;stroke:#389826;stroke-width:5.25;stroke-linecap:butt;stroke-linejoin:miter;stroke-miterlimit:10;stroke-dasharray:none;stroke-opacity:1"
           id="path1877" /></g><g
         id="g1879"
         transform="matrix(0.70964069,0,0,1,70.363747,0)"><path
           d="m 283.57,116.727 v 18.515"
           style="fill:none;stroke:#cb3c33;stroke-width:5.25;stroke-linecap:butt;stroke-linejoin:miter;stroke-miterlimit:10;stroke-dasharray:none;stroke-opacity:1"
           id="path1881" /></g><g
         id="g1883"
         transform="matrix(0.70964069,0,0,1,70.363747,0)"><path
           d="M 283.57,116.727 V 98.215"
           style="fill:none;stroke:#389826;stroke-width:5.25;stroke-linecap:butt;stroke-linejoin:miter;stroke-miterlimit:10;stroke-dasharray:none;stroke-opacity:1"
           id="path1885" /></g><g
         id="g1887"
         transform="matrix(0.70964069,0,0,1,70.363747,0)"><path
           d="M 365.969,116.727 V 98.215"
           style="fill:none;stroke:#cb3c33;stroke-width:5.25;stroke-linecap:butt;stroke-linejoin:miter;stroke-miterlimit:10;stroke-dasharray:none;stroke-opacity:1"
           id="path1889" /></g><g
         id="g1891"
         transform="matrix(0.70964069,0,0,1,70.363747,0)"><path
           d="m 365.969,116.727 v 18.515"
           style="fill:none;stroke:#389826;stroke-width:5.25;stroke-linecap:butt;stroke-linejoin:miter;stroke-miterlimit:10;stroke-dasharray:none;stroke-opacity:1"
           id="path1893" /></g><g
         id="g1895"
         transform="matrix(0.70964069,0,0,1,70.363747,0)"><path
           d="M 407.168,116.727 V 90.547"
           style="fill:none;stroke:#cb3c33;stroke-width:5.25;stroke-linecap:butt;stroke-linejoin:miter;stroke-miterlimit:10;stroke-dasharray:none;stroke-opacity:1"
           id="path1897" /></g><g
         id="g1899"
         transform="matrix(0.70964069,0,0,1,70.363747,0)"><path
           d="M 407.168,116.727 V 142.91"
           style="fill:none;stroke:#389826;stroke-width:5.25;stroke-linecap:butt;stroke-linejoin:miter;stroke-miterlimit:10;stroke-dasharray:none;stroke-opacity:1"
           id="path1901" /></g><g
         id="g1903"
         transform="matrix(0.70964069,0,0,1,70.363747,0)"><path
           d="m 74.949,142.875 1.047,0.023 0.527,0.004 1.047,0.008 0.528,-0.004 1.047,-0.008 0.523,-0.011 0.527,-0.012 0.524,-0.012 0.523,-0.019 0.528,-0.02 0.523,-0.019 1.047,-0.055 0.527,-0.027 1.047,-0.071 0.527,-0.039 0.524,-0.039 0.523,-0.043 0.528,-0.047 0.523,-0.046 0.523,-0.051 0.524,-0.055 0.527,-0.055 1.047,-0.117 0.528,-0.066 1.046,-0.133 0.524,-0.07 0.527,-0.075 1.047,-0.156 0.527,-0.082 0.524,-0.082 0.523,-0.086 0.524,-0.09 0.527,-0.09 1.047,-0.187 0.527,-0.102 0.524,-0.097 1.047,-0.211 0.527,-0.106 1.047,-0.226 0.527,-0.113 0.524,-0.118 0.523,-0.121 0.527,-0.121 1.047,-0.25 0.524,-0.129 0.527,-0.133 0.523,-0.132 0.524,-0.137 0.527,-0.137 1.047,-0.281 0.524,-0.145 0.527,-0.148 0.523,-0.148 0.524,-0.153 0.527,-0.152 1.047,-0.313 0.523,-0.16 0.528,-0.16 0.523,-0.164 0.524,-0.168 0.527,-0.164 1.57,-0.516 0.528,-0.176 1.047,-0.359 0.527,-0.18 1.047,-0.367 0.527,-0.187 0.523,-0.188 1.047,-0.383 0.528,-0.195 0.523,-0.195 0.524,-0.199 0.527,-0.2 0.523,-0.199 1.047,-0.406 0.528,-0.207 0.523,-0.207 0.523,-0.211 0.528,-0.211 0.523,-0.211 1.047,-0.43 0.527,-0.215 1.047,-0.437 0.528,-0.223 1.047,-0.445 0.523,-0.227 0.527,-0.226 0.524,-0.227 0.523,-0.23 0.528,-0.231 0.523,-0.23 0.523,-0.234 0.528,-0.231 0.523,-0.238 0.524,-0.235 0.523,-0.238 0.527,-0.238 0.524,-0.238 0.523,-0.243 0.528,-0.242 1.047,-0.484 0.523,-0.246 0.527,-0.246 1.047,-0.493 0.528,-0.246 1.57,-0.75 0.527,-0.25 1.047,-0.507 0.527,-0.25 0.524,-0.254 0.523,-0.258 0.524,-0.254 0.527,-0.254 1.047,-0.516 0.527,-0.257 1.047,-0.516 0.527,-0.258 0.524,-0.258 0.523,-0.261 0.524,-0.258 0.527,-0.262 0.524,-0.258 0.523,-0.261 0.527,-0.262 1.571,-0.785 0.527,-0.258 1.047,-0.524 0.527,-0.261 0.524,-0.262 0.523,-0.266 0.524,-0.261 0.527,-0.262 0.523,-0.262 0.524,-0.258 0.527,-0.261 1.57,-0.785 0.528,-0.262 0.523,-0.258 0.524,-0.262 0.527,-0.258 0.523,-0.261 0.524,-0.258 0.527,-0.258 0.524,-0.262 0.523,-0.257 0.524,-0.254 0.527,-0.258 0.523,-0.258 0.524,-0.254 0.527,-0.258 1.57,-0.761 0.528,-0.25 0.523,-0.254 0.524,-0.25 0.527,-0.25 1.57,-0.75 0.528,-0.246 1.046,-0.493 0.528,-0.246 1.57,-0.726 0.528,-0.242 1.046,-0.477 0.528,-0.238 0.523,-0.235 0.524,-0.238 0.527,-0.234 1.047,-0.461 0.523,-0.235 0.528,-0.226 0.523,-0.231 0.523,-0.226 0.528,-0.223 0.523,-0.226 0.524,-0.223 0.523,-0.219 0.527,-0.222 0.524,-0.215 0.523,-0.219 0.528,-0.215 0.523,-0.215 1.047,-0.422 0.527,-0.211 1.047,-0.414 0.528,-0.203 1.046,-0.406 0.524,-0.199 0.527,-0.196 0.524,-0.199 0.523,-0.191 0.527,-0.195 0.524,-0.188 0.523,-0.191 0.524,-0.188 0.527,-0.183 1.047,-0.368 0.527,-0.179 1.047,-0.352 0.528,-0.176 0.523,-0.172 1.047,-0.336 0.527,-0.167 0.524,-0.165 0.523,-0.16 0.527,-0.16 0.524,-0.16 0.523,-0.152 0.524,-0.157 0.527,-0.148 0.523,-0.152 0.524,-0.145 0.527,-0.144 0.524,-0.145 0.523,-0.141 0.524,-0.136 0.527,-0.137 1.047,-0.266 0.527,-0.129 0.524,-0.128 0.523,-0.125 0.527,-0.122 0.524,-0.121 0.523,-0.117 0.524,-0.113 0.527,-0.113 0.523,-0.114 0.524,-0.105 0.527,-0.11 1.047,-0.203 0.524,-0.097 0.527,-0.098 0.523,-0.094 0.524,-0.09 0.527,-0.089 1.047,-0.172 0.523,-0.082 0.528,-0.078 1.047,-0.149 0.527,-0.074 1.57,-0.199 0.528,-0.059 1.047,-0.117 0.527,-0.055 0.523,-0.051 1.047,-0.093 0.528,-0.043 1.046,-0.078 0.528,-0.036 0.523,-0.035 0.524,-0.031 0.527,-0.027 1.047,-0.047 0.523,-0.02 0.528,-0.019 0.523,-0.012 0.524,-0.016 0.527,-0.007 0.523,-0.008 0.524,-0.004 h 1.05"
           style="fill:none;stroke:#9658b2;stroke-width:6.375;stroke-linecap:round;stroke-linejoin:miter;stroke-miterlimit:10;stroke-dasharray:none;stroke-opacity:1"
           id="path1905" /></g><g
         id="g1907"
         transform="matrix(0.70964069,0,0,1,70.363747,0)"><path
           d="m 74.949,90.578 0.524,-0.012 0.523,-0.007 0.527,-0.008 0.524,-0.004 h 1.051 l 0.523,0.004 1.047,0.015 0.527,0.012 1.047,0.031 0.528,0.02 1.046,0.047 0.524,0.027 0.527,0.031 0.524,0.032 0.523,0.035 0.527,0.039 0.524,0.039 0.523,0.043 0.528,0.047 0.523,0.047 0.523,0.05 0.524,0.055 0.527,0.055 0.524,0.058 0.523,0.063 0.528,0.062 1.046,0.133 0.524,0.074 0.527,0.075 0.524,0.074 0.523,0.078 0.527,0.082 0.524,0.082 0.523,0.086 0.524,0.09 0.527,0.09 0.523,0.093 0.524,0.098 0.527,0.098 1.047,0.203 0.524,0.105 0.527,0.11 0.523,0.109 0.524,0.113 0.527,0.114 0.524,0.117 0.523,0.121 0.527,0.121 0.524,0.125 1.047,0.258 0.527,0.129 0.523,0.133 0.524,0.136 0.527,0.137 0.524,0.141 1.047,0.289 0.527,0.144 0.523,0.149 0.524,0.152 0.527,0.152 1.047,0.313 0.523,0.16 0.528,0.164 0.523,0.16 0.524,0.168 0.527,0.168 0.523,0.168 0.524,0.172 0.523,0.176 0.528,0.176 0.523,0.175 0.524,0.18 0.527,0.18 0.523,0.183 0.524,0.188 0.527,0.183 1.57,0.575 0.528,0.191 0.523,0.199 0.524,0.196 0.527,0.199 1.57,0.609 0.528,0.207 1.046,0.414 0.528,0.211 0.523,0.211 1.047,0.43 0.527,0.219 1.047,0.437 0.528,0.219 0.523,0.222 0.524,0.227 0.523,0.223 0.527,0.226 0.524,0.227 0.523,0.23 0.528,0.231 0.523,0.23 0.523,0.235 0.528,0.234 1.047,0.469 0.523,0.238 0.527,0.238 0.524,0.242 0.523,0.239 0.528,0.242 1.047,0.484 0.523,0.246 0.527,0.246 1.047,0.493 0.528,0.25 0.523,0.246 1.047,0.5 0.527,0.254 0.524,0.25 0.523,0.254 0.527,0.253 1.571,0.762 0.527,0.258 0.524,0.254 0.523,0.258 0.527,0.258 1.047,0.515 0.527,0.258 0.524,0.262 0.523,0.257 0.524,0.262 0.527,0.258 0.524,0.262 0.523,0.258 0.527,0.261 1.571,0.785 0.527,0.262 1.047,0.524 0.527,0.261 1.571,0.785 0.527,0.262 1.047,0.524 0.527,0.261 0.524,0.262 0.523,0.258 0.523,0.262 0.528,0.261 0.523,0.262 0.524,0.258 0.527,0.262 0.523,0.257 0.524,0.262 0.527,0.258 1.571,0.773 0.527,0.258 0.523,0.254 0.524,0.258 0.527,0.254 1.57,0.762 0.528,0.253 0.523,0.25 0.524,0.254 0.527,0.25 1.047,0.5 0.523,0.246 0.528,0.247 1.046,0.492 0.528,0.246 1.57,0.726 0.528,0.243 1.046,0.476 0.528,0.238 0.523,0.239 0.524,0.234 0.527,0.234 0.523,0.235 1.047,0.461 0.528,0.23 1.046,0.453 0.528,0.227 1.57,0.668 0.527,0.219 0.524,0.218 0.523,0.215 0.528,0.215 1.047,0.43 0.523,0.211 0.527,0.207 1.047,0.414 0.528,0.207 0.523,0.199 0.523,0.203 0.524,0.199 0.527,0.2 1.047,0.39 0.527,0.192 0.524,0.191 1.047,0.375 0.527,0.187 0.524,0.184 0.523,0.18 0.527,0.179 0.524,0.18 0.523,0.176 0.528,0.172 1.046,0.344 0.524,0.168 0.527,0.164 1.047,0.328 0.527,0.16 1.047,0.312 0.524,0.153 0.527,0.152 1.047,0.297 0.527,0.144 1.571,0.422 0.527,0.137 0.523,0.133 0.524,0.129 0.527,0.133 1.047,0.25 0.527,0.121 0.524,0.121 1.047,0.234 0.527,0.113 1.047,0.219 0.527,0.106 1.571,0.304 0.527,0.094 1.047,0.188 0.527,0.086 0.524,0.089 1.046,0.164 0.528,0.079 0.523,0.078 0.524,0.074 0.527,0.07 0.523,0.071 0.524,0.066 0.523,0.062 0.528,0.063 0.523,0.059 0.524,0.054 0.527,0.055 1.047,0.101 0.523,0.043 0.528,0.043 0.523,0.043 0.523,0.039 0.528,0.036 1.047,0.062 0.527,0.027 0.523,0.028 0.524,0.019 0.523,0.024 0.528,0.015 0.523,0.016 0.524,0.012 0.527,0.008 0.523,0.007 1.047,0.008 0.527,-0.004"
           style="fill:none;stroke:#4062d8;stroke-width:6.375;stroke-linecap:round;stroke-linejoin:miter;stroke-miterlimit:10;stroke-dasharray:none;stroke-opacity:1"
           id="path1909" /></g><g
         id="g1911"
         transform="matrix(0.70964069,0,0,1,70.363747,0)"><path
           d="m 242.371,142.91 1.047,-0.008 0.527,-0.004 1.047,-0.023 0.528,-0.012 1.57,-0.058 0.527,-0.028 1.047,-0.054 0.527,-0.035 0.524,-0.036 1.047,-0.078 0.527,-0.043 1.047,-0.093 0.527,-0.051 1.047,-0.11 0.528,-0.058 0.523,-0.059 1.047,-0.133 0.527,-0.066 0.524,-0.07 0.523,-0.075 0.527,-0.078 0.524,-0.078 1.047,-0.164 0.527,-0.086 1.047,-0.18 0.527,-0.093 0.524,-0.094 0.523,-0.102 0.524,-0.097 0.527,-0.106 1.047,-0.211 0.527,-0.113 1.047,-0.226 0.523,-0.118 0.528,-0.121 0.523,-0.121 0.524,-0.125 0.527,-0.125 0.523,-0.129 1.047,-0.265 0.528,-0.137 0.523,-0.137 0.524,-0.14 0.527,-0.141 0.523,-0.145 0.524,-0.148 0.527,-0.148 1.047,-0.305 0.523,-0.156 0.528,-0.157 1.047,-0.32 0.527,-0.164 0.523,-0.168 0.524,-0.164 0.523,-0.172 0.528,-0.172 0.523,-0.172 0.524,-0.176 0.527,-0.179 1.047,-0.36 0.523,-0.183 0.527,-0.184 1.047,-0.375 0.528,-0.191 0.523,-0.192 0.524,-0.195 0.527,-0.195 1.57,-0.598 0.528,-0.203 0.523,-0.203 0.523,-0.207 0.528,-0.207 1.57,-0.633 0.527,-0.215 1.047,-0.43 0.528,-0.218 0.523,-0.219 1.047,-0.445 0.527,-0.223 1.047,-0.453 0.528,-0.227 1.57,-0.691 0.527,-0.234 0.524,-0.231 0.523,-0.238 0.527,-0.235 1.571,-0.714 0.527,-0.243 1.047,-0.484 0.527,-0.242 1.047,-0.492 0.528,-0.246 1.046,-0.493 0.524,-0.25 0.527,-0.25 1.047,-0.5 0.527,-0.254 0.524,-0.253 0.523,-0.25 0.524,-0.254 0.527,-0.258 1.047,-0.508 0.527,-0.258 1.571,-0.773 0.527,-0.258 1.047,-0.516 0.527,-0.261 0.524,-0.258 0.523,-0.262 0.523,-0.258 0.528,-0.261 1.047,-0.524 0.527,-0.262 0.523,-0.261 0.524,-0.258 0.527,-0.262 1.571,-0.785 0.527,-0.266 1.047,-0.523 0.527,-0.262 0.524,-0.258 1.046,-0.523 0.528,-0.262 1.047,-0.523 0.527,-0.258 0.523,-0.262 0.524,-0.258 0.523,-0.261 0.528,-0.258 0.523,-0.258 0.524,-0.262 0.527,-0.257 0.523,-0.254 1.047,-0.516 0.528,-0.254 0.523,-0.258 0.523,-0.254 0.528,-0.253 0.523,-0.254 0.524,-0.25 0.527,-0.254 1.57,-0.75 0.528,-0.25 0.523,-0.25 0.523,-0.246 0.528,-0.246 1.047,-0.493 0.523,-0.242 0.528,-0.242 1.046,-0.484 0.528,-0.239 1.047,-0.476 0.523,-0.235 0.527,-0.238 0.524,-0.234 0.523,-0.231 0.528,-0.23 0.523,-0.235 0.523,-0.226 0.524,-0.231 0.527,-0.226 0.524,-0.223 0.523,-0.226 0.527,-0.223 0.524,-0.219 0.523,-0.222 0.528,-0.215 0.523,-0.219 1.047,-0.43 0.527,-0.211 1.047,-0.422 0.528,-0.207 0.523,-0.207 1.047,-0.406 0.527,-0.203 0.524,-0.199 0.523,-0.196 0.527,-0.199 0.524,-0.191 0.523,-0.195 0.524,-0.188 0.527,-0.191 0.524,-0.188 0.523,-0.183 0.527,-0.184 0.524,-0.184 0.523,-0.179 0.524,-0.176 0.527,-0.176 0.523,-0.176 0.524,-0.172 0.527,-0.168 1.047,-0.335 0.527,-0.165 1.571,-0.48 0.527,-0.152 0.523,-0.157 0.524,-0.148 0.527,-0.152 1.571,-0.434 0.527,-0.141 1.047,-0.273 0.527,-0.133 0.524,-0.133 1.046,-0.257 0.528,-0.125 1.047,-0.243 0.527,-0.117 1.57,-0.34 0.528,-0.105 0.523,-0.11 0.524,-0.101 0.527,-0.102 1.047,-0.195 0.527,-0.094 1.047,-0.179 0.523,-0.086 0.528,-0.086 0.523,-0.082 0.524,-0.078 0.527,-0.075 1.047,-0.148 0.523,-0.066 0.528,-0.067 0.523,-0.066 0.524,-0.059 0.527,-0.058 0.523,-0.059 0.524,-0.055 0.523,-0.051 0.528,-0.046 0.523,-0.047 0.523,-0.043 0.528,-0.039 0.523,-0.039 1.047,-0.071 0.527,-0.031 0.524,-0.027 0.523,-0.024 0.528,-0.023 1.047,-0.039 0.527,-0.012 0.523,-0.016 1.047,-0.015 0.527,-0.004 h 1.047 l 0.528,0.004 0.523,0.004 0.524,0.011 0.523,0.008"
           style="fill:none;stroke:#4062d8;stroke-width:6.375;stroke-linecap:round;stroke-linejoin:miter;stroke-miterlimit:10;stroke-dasharray:none;stroke-opacity:1"
           id="path1913"
           sodipodi:nodetypes="ccccccccccccccccccccccccccccccccccccccccccccccccccccccccccccccccccccccccccccccccccccccccccccccccccccccccccccccccccccccccccccccccccccccccccccccccccccccccccccccccccccccccccccccccccccccccccccccccccccccccccccccccccccccccccccccccccccccccccccccccccccccccccc" /></g><g
         id="g1915"
         transform="matrix(0.70964069,0,0,1,70.363747,0)"><path
           d="m 242.371,90.547 h 0.524 l 0.523,0.004 0.527,0.008 0.524,0.007 0.523,0.012 0.528,0.016 0.523,0.015 0.523,0.02 0.524,0.023 0.527,0.024 0.524,0.027 0.523,0.031 0.527,0.032 0.524,0.035 1.047,0.078 0.527,0.043 1.047,0.094 0.527,0.05 1.047,0.11 0.528,0.058 1.046,0.125 0.524,0.067 0.527,0.066 1.047,0.149 0.527,0.074 0.524,0.078 1.047,0.164 0.527,0.086 1.047,0.18 0.527,0.093 1.047,0.196 0.524,0.101 0.527,0.102 0.523,0.105 0.524,0.11 0.527,0.109 1.047,0.227 0.523,0.117 0.528,0.121 0.523,0.121 0.524,0.125 0.527,0.129 1.047,0.258 0.523,0.133 0.528,0.136 0.523,0.137 0.524,0.141 0.527,0.144 1.047,0.289 0.527,0.149 1.047,0.304 0.523,0.157 0.528,0.156 0.523,0.16 0.524,0.164 0.527,0.16 1.57,0.504 0.528,0.172 1.047,0.352 0.527,0.175 1.047,0.36 0.523,0.183 0.527,0.188 0.524,0.183 0.523,0.192 0.528,0.191 1.047,0.383 0.527,0.199 0.523,0.196 0.524,0.199 0.523,0.203 0.528,0.203 0.523,0.203 0.523,0.207 0.528,0.207 0.523,0.207 1.047,0.422 0.527,0.215 0.524,0.215 0.523,0.219 0.528,0.218 1.047,0.438 0.523,0.222 0.527,0.227 0.524,0.223 0.523,0.226 0.528,0.227 1.57,0.691 0.527,0.235 1.047,0.468 0.527,0.235 1.047,0.476 0.524,0.242 0.527,0.239 1.047,0.484 0.527,0.242 1.047,0.492 0.528,0.247 0.523,0.246 0.523,0.25 0.524,0.246 0.527,0.25 0.524,0.25 0.523,0.254 0.527,0.25 1.571,0.761 0.527,0.254 0.524,0.254 0.523,0.258 0.527,0.254 1.571,0.773 0.527,0.258 0.523,0.258 0.524,0.262 0.527,0.257 0.524,0.262 0.523,0.258 0.523,0.262 0.528,0.258 1.047,0.523 0.527,0.262 1.047,0.523 0.527,0.262 1.571,0.785 0.527,0.262 1.047,0.523 0.527,0.262 1.57,0.785 0.528,0.258 1.047,0.523 0.527,0.262 0.523,0.258 0.524,0.262 0.523,0.257 0.528,0.262 1.047,0.516 0.527,0.258 1.047,0.515 0.523,0.254 0.528,0.258 1.046,0.508 0.528,0.254 1.047,0.507 0.527,0.25 0.523,0.254 1.047,0.5 0.528,0.25 1.046,0.493 0.528,0.246 1.047,0.492 0.523,0.242 0.528,0.242 1.046,0.485 0.528,0.238 1.57,0.715 0.527,0.234 1.047,0.469 0.528,0.23 1.046,0.461 0.524,0.227 0.527,0.226 0.524,0.227 0.523,0.223 0.527,0.222 0.524,0.223 0.523,0.219 0.528,0.218 1.57,0.645 0.527,0.215 0.524,0.211 0.523,0.207 0.528,0.207 1.046,0.414 0.524,0.199 0.527,0.203 1.047,0.399 0.527,0.195 0.524,0.195 1.047,0.383 0.527,0.188 1.047,0.374 0.527,0.184 1.571,0.539 0.527,0.176 1.047,0.344 0.527,0.172 0.524,0.168 0.523,0.164 0.527,0.164 0.524,0.164 0.523,0.16 0.524,0.156 0.527,0.156 1.047,0.305 0.527,0.148 0.524,0.149 0.523,0.144 0.524,0.141 0.527,0.141 0.523,0.14 0.524,0.137 0.527,0.133 0.524,0.129 0.523,0.133 0.523,0.125 0.528,0.125 1.047,0.242 0.527,0.117 0.523,0.117 0.524,0.113 0.523,0.11 0.528,0.109 0.523,0.106 0.524,0.101 0.527,0.102 0.523,0.101 0.524,0.094 0.527,0.094 0.524,0.094 0.523,0.086 0.523,0.089 0.528,0.082 0.523,0.082 0.524,0.079 0.527,0.078 0.523,0.074 1.047,0.141 0.528,0.066 1.047,0.125 0.527,0.059 1.047,0.109 0.523,0.051 0.528,0.05 1.046,0.086 0.528,0.043 0.523,0.039 0.524,0.036 0.523,0.031 0.527,0.031 1.047,0.055 0.528,0.019 0.523,0.024 0.524,0.015 0.527,0.016 0.523,0.012 1.047,0.015 0.527,0.004 0.524,0.004 0.523,-0.004 h 0.528 l 1.047,-0.015 0.523,-0.012"
           style="fill:none;stroke:#9658b2;stroke-width:6.375;stroke-linecap:round;stroke-linejoin:miter;stroke-miterlimit:10;stroke-dasharray:none;stroke-opacity:1"
           id="path1917" /></g><text
         style="font-variant:normal;font-weight:normal;font-size:52.5px;font-family:'Tamil MN';-inkscape-font-specification:TamilMN;letter-spacing:-3.75px;writing-mode:lr-tb;fill:#000000;fill-opacity:1;fill-rule:nonzero;stroke:none"
         id="text1921-3"
         x="117.14657"
         y="2.8119681"><tspan
           x="117.14657"
           sodipodi:role="line"
           id="tspan1919-7"
           y="2.8119681" /></text><text
         xml:space="preserve"
         style="font-style:normal;font-variant:normal;font-weight:normal;font-stretch:normal;font-size:50px;line-height:1.25;font-family:'Tamil MN';-inkscape-font-specification:'Tamil MN';letter-spacing:-2.25px;fill:#000000;fill-opacity:1;stroke:none;stroke-width:0.75"
         x="64.068619"
         y="71.683105"
         id="text17335"><tspan
           sodipodi:role="line"
           id="tspan17333"
           style="font-style:normal;font-variant:normal;font-weight:normal;font-stretch:normal;font-size:50px;font-family:'Tamil MN';-inkscape-font-specification:'Tamil MN';stroke-width:0.75"
           x="64.068619"
           y="71.683105">GeneticsMakie.jl</tspan></text></g></g></svg>
